<?xml version="1.0" encoding="utf-8"?>
<!-- Generator: Adobe Illustrator 16.0.0, SVG Export Plug-In . SVG Version: 6.00 Build 0)  -->
<!DOCTYPE svg PUBLIC "-//W3C//DTD SVG 1.1//EN" "http://www.w3.org/Graphics/SVG/1.1/DTD/svg11.dtd">
<svg version="1.1" id="Layer_1" xmlns="http://www.w3.org/2000/svg" xmlns:xlink="http://www.w3.org/1999/xlink" x="0px" y="0px"
	 width="160px" height="48px" viewBox="0 0 600 200" enable-background="new 0 0 600 200" xml:space="preserve">
<polygon fill="#CCCCCC" points="199,14.257 199,185 27.574,185 43.286,169.547 182.615,169.612 182.148,28.936 "/>
<polygon fill="#E5E5E5" points="6,183.808 6,13 180.451,13 163.307,26.585 22,26.687 22,168.077 "/>
<polygon fill="#7CE5E8" points="36,154.967 36,37.855 96.435,84.103 136,57.665 136,80.898 97.803,108.064 58.644,78.93 
	57.5,135.666 "/>
<polygon fill="#57D3D0" points="166,37.855 166,154 80.478,154 96.828,137.004 146.266,137.218 146.28,52.308 "/>
<text transform="matrix(1.0615 0 0 1 211.6807 139.2354)" fill="#CCCCCC" font-family="nexa" font-size="104.8764">THEME</text>
</svg>
