<?xml version="1.0" encoding="UTF-8"?> <svg xmlns="http://www.w3.org/2000/svg" id="Layer_1" data-name="Layer 1" viewBox="0 0 107.13 104.56"><defs><style>.cls-1{fill:#1c75bc;}</style></defs><title>Artboard 35 copy 9</title><path class="cls-1" d="M37,54.57q0,14.54,0,29.06a2.82,2.82,0,0,0,.66,2.11,2.75,2.75,0,0,0,2.16.83c5.11,0,10.23,0,15.34,0,4,0,8-.07,12,0a2.83,2.83,0,0,0,3-3c-.07-10.88,0-21.77,0-32.65a4.68,4.68,0,0,1,.07-1.19,1,1,0,0,1,1.07-.9,1.1,1.1,0,0,1,1,1,3.51,3.51,0,0,1,0,.86q0,16.38,0,32.77A4.92,4.92,0,0,1,67,88.78H40.12a4.92,4.92,0,0,1-5.3-5.29q0-29,0-58a4.83,4.83,0,0,1,3.46-4.95,5.45,5.45,0,0,1,1.39-.17c2.11,0,4.21,0,6.32,0,1,0,1.17-.06,1.13-1.1a3.33,3.33,0,0,1,3.72-3.45c1.74.06,3.48,0,5.22,0a3.28,3.28,0,0,1,3.63,3.53c0,1,.06,1,1.1,1,2.21,0,4.43,0,6.64,0a4.69,4.69,0,0,1,4.86,4.77c0,6.28,0,12.56,0,18.84a2,2,0,0,1-.21.93,1,1,0,0,1-1.8,0,3.12,3.12,0,0,1-.2-1.26q0-9,0-18.07c0-2.13-1-3.11-3.13-3.11q-13.39,0-26.78,0c-2.2,0-3.14,1-3.15,3.2ZM49.25,20.33c2.7,0,5.23,0,7.76,0a.69.69,0,0,0,.5-.32,1.36,1.36,0,0,0-1-1.95c-2.06,0-4.13,0-6.19,0a1,1,0,0,0-1,1C49.22,19.41,49.25,19.77,49.25,20.33Z"></path><path class="cls-1" d="M53.34,49.39h-10c-1.92,0-3-1-3-2.9-.07-2.57-.06-5.15,0-7.72a2.79,2.79,0,0,1,2.88-2.92c.65,0,1.3,0,2,0H62.76a6.8,6.8,0,0,1,1.61.18,2.32,2.32,0,0,1,1.87,2.24c0,2.9.05,5.81,0,8.71a2.44,2.44,0,0,1-2.67,2.4C60.16,49.4,56.75,49.39,53.34,49.39Zm0-11.34H43.56c-1,0-1.07.1-1.07,1,0,2.36,0,4.71,0,7.07,0,1,.13,1.14,1.14,1.14H63c1,0,1.2-.18,1.2-1.21q0-3.37,0-6.75c0-1.24-.06-1.3-1.28-1.31Z"></path><path class="cls-1" d="M53.57,65.51c-3.34,0-6.67-.06-10,0a2.73,2.73,0,0,1-3-2.93c.06-2.54,0-5.08,0-7.61,0-2,.91-2.91,3-2.92q10,0,20,0c2,0,2.93.89,3,2.9q.06,3.81,0,7.61c0,2-1,2.91-3,2.92Zm-.12-2.06h9.79c1,0,1.17-.16,1.17-1.12q0-3.53,0-7.07c0-1-.13-1.09-1.17-1.09H43.88c-1.07,0-1.17.12-1.18,1.2,0,2.14,0,4.28,0,6.42,0,1.65,0,1.66,1.61,1.66Z"></path><path class="cls-1" d="M53.89,81.65c-3.27,0-6.54-.06-9.8,0A2.75,2.75,0,0,1,41,78.59c.09-2.5.07-5,0-7.51A2.72,2.72,0,0,1,44,68.2c6.72.06,13.43,0,20.14,0,1.89,0,2.84.9,2.87,2.77,0,2.61,0,5.23,0,7.84a2.5,2.5,0,0,1-2.84,2.8C60.71,81.66,57.3,81.65,53.89,81.65ZM54,70.29H44.42c-1.14,0-1.27.12-1.28,1.22,0,2.28,0,4.57,0,6.85,0,1.06.14,1.2,1.2,1.2q9.67,0,19.35,0c1,0,1.16-.13,1.16-1.22q0-3.37,0-6.74c0-1.21-.1-1.31-1.3-1.31Z"></path><path class="cls-1" d="M54.73,28.2c.55,0,1,0,1.35,0,.86,0,1.25.35,1.27,1s-.33,1-1.18,1.09l-1.5.12c0,.47,0,.86,0,1.25,0,1-.43,1.43-1.14,1.41s-1-.47-1.08-1.36c0-.4,0-.79,0-1.28-.5-.05-.92-.1-1.34-.13-1-.07-1.35-.36-1.35-1.06s.43-1,1.34-1.05c.4,0,.79,0,1.29,0,0-.48,0-.87.06-1.25,0-1,.48-1.59,1.14-1.56s1,.59,1.08,1.51C54.69,27.32,54.71,27.73,54.73,28.2Z"></path></svg> 