<?xml version="1.0" encoding="UTF-8"?> <svg xmlns="http://www.w3.org/2000/svg" id="Layer_1" data-name="Layer 1" viewBox="0 0 107.13 104.56"><defs><style>.cls-1{fill:#1c75bc;}</style></defs><title>Artboard 35 copy 13</title><path class="cls-1" d="M86.2,76.36c.49,0,.79.09,1.11.11a2.79,2.79,0,0,1,2.9,2.63,31.29,31.29,0,0,1,0,5,2.8,2.8,0,0,1-2.87,2.72c-.28,0-36.92.05-38.16,0a2.94,2.94,0,0,1-2.46-2.72c0-1.64-.05-3.28,0-4.92a2.7,2.7,0,0,1,2.75-2.73l1-.1V46.49a8.54,8.54,0,0,0-1.11.3,9.17,9.17,0,0,0-5.28,10.56,33.36,33.36,0,0,1,1,8.89,15.84,15.84,0,0,1-1,5.14A7.1,7.1,0,0,1,36.33,76a15.38,15.38,0,0,1-3.14-.72,8.44,8.44,0,0,1-5.63-7.62,26.94,26.94,0,0,1,2.55-12.19,62.07,62.07,0,0,1,3-6,29.38,29.38,0,0,0,3.49-9.38A12.79,12.79,0,0,0,36,32.84c-.35-.82-.86-1.58-1.41-2.58-.66.8-1.17,1.39-1.65,2-1.55,2-2.95,2.13-4.91.59S24,29.72,22.07,28.14a2.91,2.91,0,0,1-.47-4.42c.57-.71,1.15-1.41,1.82-2.23a8.9,8.9,0,0,0-4.24-1.31c-.36,0-.72,0-1.08,0a1.29,1.29,0,0,1-1.28-1,1.34,1.34,0,0,1,1.05-1.27,6,6,0,0,1,3.42.21A22.11,22.11,0,0,1,30,22.76a78.05,78.05,0,0,1,5.93,5.42,11.67,11.67,0,0,1,3.3,7.64c.39,5.5-1.49,10.36-4.16,15a42.24,42.24,0,0,0-4.6,11.27,13.33,13.33,0,0,0-.17,7,6,6,0,0,0,2.29,3.27,8.23,8.23,0,0,0,4.61,1.46,5,5,0,0,0,5-3.62,15.14,15.14,0,0,0,.66-7.1c-.31-2.24-.85-4.46-1.08-6.71a11.54,11.54,0,0,1,8-12.21c.85-.26.88-.74.87-1.42q0-10.38,0-20.76a5.21,5.21,0,0,1,.25-1.76,2.61,2.61,0,0,1,2.42-1.83c.32,0,.64,0,1,0H82.59c2.61,0,3.61,1,3.61,3.63V76.36ZM83.93,48.54V22.75c0-.36,0-.72,0-1.08,0-.67-.31-1.06-1-1-.32,0-.64,0-1,0H55.07c-2.16,0-2.16,0-2.16,2.21V74.3c0,.28,0,.56,0,.83,0,1.15.21,1.34,1.34,1.34H82.57c1.16,0,1.31-.17,1.35-1.31,0-.32,0-.64,0-1ZM50.41,78.74c-1.2,0-1.37.19-1.38,1.41q0,1.5,0,3c0,1.15.17,1.31,1.3,1.37.24,0,36.35,0,36.71,0a.9.9,0,0,0,1-1c0-1.28,0-2.56,0-3.84a.88.88,0,0,0-1-1ZM30.34,31.68c.76-.94,1.53-1.84,2.21-2.8.12-.16,0-.72-.26-.89-2-1.65-4-3.24-6.05-4.86a.75.75,0,0,0-1.22.16c-.44.56-.9,1.11-1.34,1.68-.7.9-.7,1,.2,1.71,1.83,1.48,3.67,2.94,5.51,4.4C29.64,31.27,29.92,31.41,30.34,31.68Z"></path><path class="cls-1" d="M68.37,39.14c-2.88,0-5.77-.08-8.64,0A3,3,0,0,1,56.56,36c.09-2.59.08-5.2,0-7.79a3,3,0,0,1,3-3.1c5.88.06,11.76,0,17.63,0a2.71,2.71,0,0,1,3,2.94q0,4.08,0,8.15a2.7,2.7,0,0,1-3,2.94C74.28,39.15,71.32,39.14,68.37,39.14Zm.06-2.26h8.16c1.28,0,1.38-.1,1.39-1.34q0-3.42,0-6.84c0-1.19-.13-1.33-1.3-1.33H60.13c-1.14,0-1.27.16-1.28,1.35q0,3.42,0,6.84c0,1.19.14,1.32,1.31,1.32Z"></path><path class="cls-1" d="M66.44,59.75c-.9,0-1.64,0-2.38,0a2.36,2.36,0,0,1-2.12-3.85c2.28-3.33,4.56-6.65,6.88-9.95A2.42,2.42,0,0,1,72,45.09a1.91,1.91,0,0,1,1.09,2.46c-.57,1.75-1.19,3.47-1.79,5.21a7.4,7.4,0,0,0-.29.91c-.15.73,0,.91.76,1a13.48,13.48,0,0,1,2.12.21,1.46,1.46,0,0,1,1.29,1.74,6.4,6.4,0,0,1-.67,2.5c-2,3.39-4.16,6.72-6.29,10.05a2.54,2.54,0,0,1-2.11,1.2,2.08,2.08,0,0,1-2.33-2.47,5.55,5.55,0,0,1,.32-1.26c.65-1.85,1.31-3.69,2-5.53C66.17,60.72,66.26,60.34,66.44,59.75Zm4.9-12.91c-.9-.24-1.12.3-1.41.71Q66.85,52,63.8,56.41c-.23.35-.39.74-.68,1.28A9,9,0,0,0,64.4,58c.76,0,1.52,0,2.28,0a1.44,1.44,0,0,1,1.53,1.6,6.18,6.18,0,0,1-.34,1.86c-.65,1.93-1.37,3.83-2,5.75a9.25,9.25,0,0,0-.24,1.21,1,1,0,0,0,1.31-.59c1.94-3.07,3.88-6.13,5.8-9.22a16.66,16.66,0,0,0,.86-2c-1-.08-1.74-.11-2.48-.2a2.07,2.07,0,0,1-2-2.16,4.6,4.6,0,0,1,.23-1.52c.51-1.55,1.09-3.08,1.62-4.63C71.11,47.73,71.21,47.31,71.34,46.84Z"></path></svg> 