<?xml version="1.0" encoding="UTF-8"?> <svg xmlns="http://www.w3.org/2000/svg" id="Layer_1" data-name="Layer 1" viewBox="0 0 107.13 104.56"><defs><style>.cls-1{fill:#1c75bc;}</style></defs><title>Artboard 35 copy 6</title><path class="cls-1" d="M54.88,56.09c0,.37,0,14.46,0,21.13A1.9,1.9,0,0,0,56,79.16c2.18,1.14,4.33,2.34,6.49,3.52a6.09,6.09,0,0,1,1,.68,1.28,1.28,0,0,1,.27,1.57,1.14,1.14,0,0,1-1.3.7,3.42,3.42,0,0,1-1-.39c-1.76-.95-3.52-1.92-5.28-2.88-.35-.19-.72-.34-1.26-.6,0,.59-.08,5.33-.08,7.3,0,.31,0,.61,0,.91a1.36,1.36,0,0,1-1.3,1.33A1.33,1.33,0,0,1,52.27,90c-.05-1.09,0-2.19,0-3.29,0-1.37.11-4.71,0-5-.41.18-.95.49-1.27.66l-5.38,2.94a4.1,4.1,0,0,1-.41.22,1.39,1.39,0,0,1-1.9-.43,1.37,1.37,0,0,1,.58-1.93c1.24-.74,2.51-1.41,3.77-2.1s2.45-1.37,3.7-2a1.43,1.43,0,0,0,.88-1.42c0-6.9-.09-21.26-.16-21.76-.42.36-.71.58-1,.83C46.31,61.46,41.5,66.3,36.65,71.1a1.65,1.65,0,0,0-.49,1.9c.77,2.41,1.44,4.85,2.14,7.29a6.38,6.38,0,0,1,.22,1.22,1.17,1.17,0,0,1-.93,1.26,1.22,1.22,0,0,1-1.47-.57,4,4,0,0,1-.44-1.15c-.57-1.92-1.12-3.85-1.68-5.77-.09-.28-.21-.55-.37-1a8,8,0,0,0-.82.67c-1.38,1.36-2.74,2.73-4.11,4.09-.19.19-.37.38-.56.56-.74.69-1.54.77-2.11.22a1.41,1.41,0,0,1,.16-2.11c1-1,2-2,3-3.06.61-.62,1.24-1.23,1.84-1.85a5.57,5.57,0,0,0,.45-.66l-2.77-.84c-1.42-.42-2.85-.79-4.25-1.25a2.65,2.65,0,0,1-1.28-.83,1.2,1.2,0,0,1,.94-1.9,4,4,0,0,1,1.33.19c2.47.7,4.95,1.39,7.4,2.15a1.49,1.49,0,0,0,1.72-.38c4.89-4.92,9.81-9.82,14.71-14.73a11.29,11.29,0,0,0,1-1c-.42-.07-15.22,0-22.2,0a1.43,1.43,0,0,0-1.41.89c-1.23,2.3-2.5,4.59-3.75,6.88a6.3,6.3,0,0,1-.53.87,1.42,1.42,0,0,1-1.76.28,1.26,1.26,0,0,1-.51-1.67c.68-1.35,1.42-2.67,2.14-4l1.66-3.07c-.54-.06-.92-.15-1.3-.15-1.93,0-3.87,0-5.8,0-.26,0-.53,0-.8,0a1.38,1.38,0,0,1-1.49-1.36A1.36,1.36,0,0,1,16,51c2.16,0,4.32,0,6.48,0,.4,0,.8-.05,1.34-.08a7.72,7.72,0,0,0-.38-.95q-1.35-2.49-2.72-5c-.22-.4-.44-.8-.62-1.22a1.31,1.31,0,0,1,.52-1.67,1.43,1.43,0,0,1,1.76.29,4.28,4.28,0,0,1,.47.77c1.26,2.29,2.54,4.57,3.76,6.88a1.56,1.56,0,0,0,1.59,1c6.86,0,21.23-.07,21.75-.11a8.44,8.44,0,0,0-.6-.83Q42,42.64,34.6,35.23A1.4,1.4,0,0,0,33,34.85c-2.46.76-4.93,1.45-7.41,2.16a5.05,5.05,0,0,1-1.21.22,1.18,1.18,0,0,1-1.31-1,1.25,1.25,0,0,1,.66-1.43,4.35,4.35,0,0,1,1.06-.39l6.82-2c-.33-.39-.54-.68-.78-.93L26.39,27c-.85-.86-1-1.65-.41-2.27s1.46-.53,2.35.36c1.46,1.44,2.9,2.9,4.35,4.34.25.26.53.5.9.84.15-.4.26-.62.33-.86.6-2,1.18-4,1.77-6a4.4,4.4,0,0,1,.41-1.06,1.22,1.22,0,0,1,1.43-.63,1.16,1.16,0,0,1,1,1.32,5.05,5.05,0,0,1-.22,1.21c-.71,2.48-1.4,5-2.16,7.41a1.38,1.38,0,0,0,.39,1.61q7.42,7.38,14.82,14.78c.18.18.4.31.73.58a5.41,5.41,0,0,0,.17-.94c0-7,0-14,0-20.93a1.43,1.43,0,0,0-.89-1.41c-2.3-1.23-4.59-2.5-6.88-3.76a5.41,5.41,0,0,1-.87-.52,1.42,1.42,0,0,1-.28-1.76A1.25,1.25,0,0,1,45,18.85c1.35.69,2.67,1.43,4,2.15l3.07,1.66a11,11,0,0,0,.16-1.29c0-2,0-3.95,0-5.92,0-.19,0-.38,0-.57,0-1,.57-1.64,1.36-1.61s1.26.62,1.26,1.59c0,2.12,0,4.24,0,6.36,0,.41,0,.81.07,1.36a8.17,8.17,0,0,0,.94-.38c1.77-.95,3.52-1.92,5.29-2.88a9.69,9.69,0,0,1,.91-.46,1.3,1.3,0,0,1,1.68.49,1.41,1.41,0,0,1-.33,1.83,5.14,5.14,0,0,1-.78.46c-2.3,1.26-4.58,2.53-6.89,3.75a1.51,1.51,0,0,0-.91,1.52c0,6.9,0,13.79,0,20.69,0,.3,0,.6.09,1.15.44-.36.76-.58,1-.84l9.17-9.17c1.74-1.74,3.46-3.5,5.23-5.21a1.54,1.54,0,0,0,.49-1.79c-.84-2.63-1.58-5.28-2.37-7.93a1.28,1.28,0,0,1,.34-1.55A2.13,2.13,0,0,1,70.22,22c.64.09.84.7,1,1.26.47,1.59.93,3.19,1.4,4.79.22.75.46,1.49.76,2.42.44-.39.75-.64,1-.92l4.1-4.09c.19-.19.37-.39.57-.56a1.43,1.43,0,0,1,2-.13,1.4,1.4,0,0,1-.1,2c-1,1-2,2-3,3-.67.67-1.35,1.33-2,2a6.78,6.78,0,0,0-.53.72c.4.14.7.26,1,.36L82,34.41c.29.09.58.16.87.27a1.38,1.38,0,1,1-.79,2.63c-1.53-.43-3-.88-4.57-1.33-1.16-.34-2.33-.66-3.48-1a1.34,1.34,0,0,0-1.59.42c-3.36,3.39-6.75,6.76-10.12,10.14L58,49.83c-.26.26-.62.7-1,1.16l21.81,0a1.59,1.59,0,0,0,1.6-1c1.13-2.15,2.31-4.26,3.48-6.38a10.5,10.5,0,0,1,.63-1.08A1.43,1.43,0,0,1,86.23,42a1.36,1.36,0,0,1,.56,1.86c-.48,1-1,1.94-1.57,2.9l-1.69,3.09c-.14.26-.25.54-.44,1,.49,0,.88.13,1.26.13h6.14a6.82,6.82,0,0,1,1,.06,1.29,1.29,0,0,1-.05,2.55,5.55,5.55,0,0,1-.91,0H84.41c-.4,0-.79,0-1.35.09.23.5.36.85.54,1.17q1.47,2.69,3,5.37a3.5,3.5,0,0,1,.26.51,1.42,1.42,0,0,1-.52,1.79A1.36,1.36,0,0,1,84.42,62c-.75-1.26-1.44-2.57-2.15-3.87s-1.32-2.3-1.9-3.49a1.71,1.71,0,0,0-1.78-1.06l-21.51,0c0,.08.18.14.13.22.25.3,8.3,8.45,12.08,12.23,1,1,2.12,2.06,3.12,3.14a1.36,1.36,0,0,0,1.6.42c2.56-.79,5.14-1.53,7.72-2.28,1.17-.34,1.93-.09,2.19.71S83.74,69.6,82.5,70l-6,1.78c-.31.09-.62.22-1.08.38.38.42.64.73.93,1,1.38,1.4,2.78,2.79,4.17,4.18a6.5,6.5,0,0,1,.63.66,1.34,1.34,0,0,1-1.93,1.87,7.71,7.71,0,0,1-.65-.63L74.4,75.05c-.26-.26-.55-.5-1-.87a8.92,8.92,0,0,0-.4,1c-.62,2.06-1.22,4.13-1.83,6.2-.17.6-.42,1.15-1.12,1.3a1.36,1.36,0,0,1-1.59-1.82c.42-1.57.9-3.12,1.36-4.68.35-1.16.64-2.34,1.06-3.47A1.42,1.42,0,0,0,70.4,71C65.88,66.54,55.78,56.44,55.23,55.9Z"></path></svg> 