<?xml version="1.0" encoding="UTF-8"?> <svg xmlns="http://www.w3.org/2000/svg" id="Слой_1" data-name="Слой 1" width="123.05" height="86.81" viewBox="0 0 123.05 86.81"><defs><style>.cls-1{fill:#ffd139;}</style></defs><title>pape</title><polygon class="cls-1" points="89.36 8.34 89.36 86.51 111.2 86.51 111.2 75.82 101.84 75.82 101.84 47.52 110.83 47.52 110.83 37.31 101.82 37.31 101.82 18.99 111.19 18.99 111.19 8.34 89.36 8.34"></polygon><path class="cls-1" d="M112.45-.07a2.83,2.83,0,0,0-1,.1L91.71,3.73c-1.14.22-1.26.41-.88,1.6h21.62Z" transform="translate(-1.09 0.07)"></path><path class="cls-1" d="M57.63,84.14c-.38-4.94-.78-9.86-1.15-14.8-.32-4.19-.6-8.38-.95-12.58-.37-4.93-.78-9.86-1.15-14.79S53.7,32,53.3,27.08c-.44-6-.95-12-1.34-18,0-.71-.28-.9-1-.9H34.93q-3.87,39.22-7.72,78.22H37.67c.57-6.4,1.15-12.75,1.73-19.18h5.38c.17,0,.47.45.49.7.33,4.87.62,9.76.95,14.64.08,1.27.17,2.55.26,3.8H57.72C57.7,85.62,57.69,84.88,57.63,84.14ZM44.06,55.39c-1.1.06-2.22,0-3.47,0,.65-9.19,1.27-18.26,1.9-27.33h.23l.42,6.23q.48,7.45,1,14.89c.12,1.9.26,3.7.34,5.56C44.47,55,44.21,55.38,44.06,55.39Z" transform="translate(-1.09 0.07)"></path><path class="cls-1" d="M87,20.65a26.42,26.42,0,0,0-.36-4.35c-.62-3.69-2.44-6.48-6.26-7.46A18.72,18.72,0,0,0,76,8.25c-5.21-.07-10.46,0-15.63,0h-.86V86.41H70.87V56.26H72c2.19,0,4.41,0,6.6-.19A8.21,8.21,0,0,0,86,50.57a16.68,16.68,0,0,0,1.07-6.13C87.06,36.51,87.08,28.58,87,20.65ZM75.44,40a16.23,16.23,0,0,1-.19,2.31C74.92,44.32,74,45,72,45H70.9V19.5c2.16-.68,3.81.18,4.22,2.31a26.29,26.29,0,0,1,.35,4.43C75.5,30.82,75.47,35.41,75.44,40Z" transform="translate(-1.09 0.07)"></path><path class="cls-1" d="M28.58,21.12a35,35,0,0,0-.35-4.7c-.6-4.3-2.9-6.91-7-7.77a18.89,18.89,0,0,0-3.75-.41H1.09v78.2H12.41V56.26h1.12c2.2,0,4.41,0,6.65-.19a8.18,8.18,0,0,0,7.61-5.87,18.08,18.08,0,0,0,.95-5.2C28.68,37.08,28.65,29.07,28.58,21.12ZM17,39.47a17.74,17.74,0,0,1-.35,3.32,2.93,2.93,0,0,1-3.39,2.36,2.75,2.75,0,0,1-.56-.16c-.19-.06-.35-.53-.35-.82V20.36c0-.8.21-1.09,1.05-1.07,2.21.06,3.13.79,3.45,3A20.6,20.6,0,0,1,17,25c0,4.83,0,9.65,0,14.46Z" transform="translate(-1.09 0.07)"></path><path class="cls-1" d="M120.1,78.8a3.9,3.9,0,0,0-4,3.75v.17a4,4,0,1,0,8.08,0,3.89,3.89,0,0,0-3.89-3.88Zm0,7.08a3,3,0,0,1-3.09-3v-.19a3.09,3.09,0,1,1,6.18-.07,3,3,0,0,1-2.83,3.22h-.26Z" transform="translate(-1.09 0.07)"></path><path class="cls-1" d="M121.92,81.51c-.14-.91-.85-1.07-1.59-1.12h-1.75v4.49a2.26,2.26,0,0,0,.52,0c.14-.62.23-1.24.37-2a3.25,3.25,0,0,1,.73.55c.27.36.43.81.72,1.15a2.55,2.55,0,0,0,.79.44l.13-.22c-.33-.55-.66-1.12-1-1.74C121.58,82.77,122.05,82.33,121.92,81.51Zm-2.57.95V80.93c.6.16,1.13.26,1.65.44a.86.86,0,0,1,0,.59c-.54.2-1.09.37-1.65.52Z" transform="translate(-1.09 0.07)"></path></svg> 