<?xml version="1.0" encoding="UTF-8"?> <svg xmlns="http://www.w3.org/2000/svg" id="Слой_1" data-name="Слой 1" width="146.97" height="83.13" viewBox="0 0 146.97 83.13"><defs><style>.cls-1{fill:#e94667;}.cls-2{fill:#1c549b;}</style></defs><title>allan-bros</title><path class="cls-1" d="M76.22,39.05c-.09,5.18-2.16,9.66-4.52,14.06a21.13,21.13,0,0,1-2,3.33,5.88,5.88,0,0,1-7.32,1.85,7.78,7.78,0,0,0-6.1-.08c-3.7,1.44-6.36.29-8.44-3.13a34.91,34.91,0,0,1-5.27-14.45,13.58,13.58,0,0,1,4.22-12,9.14,9.14,0,0,1,10.31-1.84c1.53.61,1.9.36,1.78-1.27s-.49-3.33-.69-5a7.72,7.72,0,0,1,.16-1.66c.47.08,1.07,0,1.37.26a2.21,2.21,0,0,1,.88,1.49c-.14,1.61-.55,3.2-.77,4.82s.24,2,1.67,1.36c6.87-3.09,12.82,2.75,14.13,7.94A39.65,39.65,0,0,1,76.22,39.05Zm-27.4-1.27c0,2.61,1.69,4.26,4.47,4.31A4.2,4.2,0,0,0,57.64,38v0a4.66,4.66,0,0,0-4.29-4.49,4.19,4.19,0,0,0-4.51,3.85A3.1,3.1,0,0,0,48.82,37.78Z" transform="translate(-0.85 -1.17)"></path><path class="cls-2" d="M52.4,9.91c1.82,2.3,2.63,4.35,1.42,6.75a5.52,5.52,0,0,1-6.63,3,5.36,5.36,0,0,1-3.87-6.49C44.47,7.63,48.41,4.64,53.39,3,60.69.57,68.16.85,75.65,2.18A27.25,27.25,0,0,1,86.26,6.1a10.5,10.5,0,0,1,5.07,9.44c-.09,11.1,0,22.19-.06,33.29,0,.78,0,1.58.07,2.36.19,2.08,1.12,3.08,2.85,3.1a3.26,3.26,0,0,0,3.24-3.23c.08-3.1,0-6.19,0-9.28V38.93c1.67,0,3.23-.07,4.77,0,.34,0,.9.77.9,1.19.08,3.7.18,7.41,0,11.09-.18,3.93-3.39,7.2-8,8a17.45,17.45,0,0,1-10.17-1,8,8,0,0,1-5-7.9c0-11.28-.11-22.55.09-33.83.08-4.63-2.26-7.06-6.1-8.39a28.77,28.77,0,0,0-18.2-.24A18.35,18.35,0,0,0,52.4,9.91Z" transform="translate(-0.85 -1.17)"></path><path class="cls-2" d="M79.72,64.26a14.7,14.7,0,0,1,2-.32c3.67-.11,3.67-.1,3.66,3.55v3.84c5.14-2.3,8-2,10.11,1a7.92,7.92,0,0,1-.82,9.85c-2.48,2.5-5.66,2.38-10-.47l-1.23,2.12H83A11.84,11.84,0,0,1,82.64,82V68.5c0-3,0-3-2.68-3.64ZM94.29,76.93l-.2-.06a9.91,9.91,0,0,0,0-1.09c-.22-2.21-1.78-4.3-3.68-4.72A4.14,4.14,0,0,0,86,72.9a7.67,7.67,0,0,0,.12,8.39,4.22,4.22,0,0,0,7.19-.92A22.83,22.83,0,0,0,94.29,76.93Z" transform="translate(-0.85 -1.17)"></path><path class="cls-2" d="M61.09,83c-.4.23-.78.62-1.19.66-4.57.44-6.23.22-6.79-.87.07-.09.14-.24.21-.26,2.58-.53,2.58-.52,2.58-3.26V73.67c0-1.21-.39-2-1.71-2.08-.38,0-.74-.4-1.1-.62a4.65,4.65,0,0,1,1.28-.59,8.48,8.48,0,0,1,2.36,0,3.32,3.32,0,0,1,2,1.22,23.1,23.1,0,0,1,3.09-1.38c4-1.16,6.75.91,6.86,5V80.5c0,1.07.07,2,1.48,2,.26,0,.52.46.78.7-.31.22-.61.61-.92.62-1.82.06-3.63,0-5.45,0-.31,0-.61-.41-.92-.63.28-.24.54-.69.81-.69,1.39,0,1.54-.86,1.52-2v-6a3.21,3.21,0,0,0-3.19-3.21,3.26,3.26,0,0,0-1.3.27,4.59,4.59,0,0,0-2.94,4.2c-.08,1.14,0,2.29,0,3.45-.09,1.83-.31,3.72,2.94,3.17Z" transform="translate(-0.85 -1.17)"></path><path class="cls-2" d="M51.16,78.84c1.07,2.06.52,4.45-.64,5-1.49.77-2.94.23-4.54-1.73A8.38,8.38,0,0,1,38.75,84,3.25,3.25,0,0,1,36,81a2.7,2.7,0,0,1,2-3.27l.12,0a62,62,0,0,0,6.1-1.59A3,3,0,0,0,46,74a3.24,3.24,0,0,0-1.51-2.37,5,5,0,0,0-5.29.09c.15,1.13.57,2.11.28,2.77a1.4,1.4,0,0,1-2.31.34,2.14,2.14,0,0,1,0-3l.23-.2A8.65,8.65,0,0,1,44.06,70c3.55.45,4.55,1.71,4.55,5.29,0,2,0,4,.08,6,0,.54.6,1,1,1.55a7.66,7.66,0,0,0,.86-1.39C50.78,80.57,50.94,79.7,51.16,78.84Zm-9.41,4.07C45,82.79,46,80.75,46.05,78c0-.3-.88-.92-1.27-.85a31.55,31.55,0,0,0-4,1c-1.37.41-2.28,1.27-1.9,2.79a2.49,2.49,0,0,0,2.88,1.92Z" transform="translate(-0.85 -1.17)"></path><path class="cls-2" d="M10.92,82a8.25,8.25,0,0,1-7.18,2A3.14,3.14,0,0,1,.91,81.17C.65,79.38,1.26,78,3.1,77.55S7,76.64,8.91,76.2c1.21-.28,2.17-1,1.84-2.25A4.15,4.15,0,0,0,9,71.5c-1.67-.91-3.48-.6-5.34.33L4.26,73c.55,1,.25,2-.78,2.13a2.4,2.4,0,0,1-2-1.17C1,72.47,2,71.49,3.18,71a10,10,0,0,1,7.61-.53,3.93,3.93,0,0,1,2.67,3.93c.06,2.3,0,4.61.08,6.91,0,.53.56,1,.86,1.56a10.48,10.48,0,0,0,.91-1.55c.32-.76.51-1.55.76-2.32a14.45,14.45,0,0,1,.4,2.54c0,1.21-.37,2.31-1.8,2.56C13,84.36,11.58,84.06,10.92,82Zm-.49-5.11a37.18,37.18,0,0,0-5.57,1.67A2.85,2.85,0,0,0,3.77,81a3.09,3.09,0,0,0,2.07,1.82c3.13.61,5.86-2.29,4.59-6Z" transform="translate(-0.85 -1.17)"></path><path class="cls-2" d="M130.53,82.49l-1.66,1.81V78.55l.38-.17c.33.5.68,1,1,1.51,1.25,2.22,4.72,3.67,7.06,2.68.86-.36,1.44-1.4,2.15-2.13-.7-.66-1.29-1.67-2.11-1.92-2.06-.63-4.23-.88-6.35-1.36a2.83,2.83,0,0,1-2.35-2.64,3.52,3.52,0,0,1,1.69-3.72,7.16,7.16,0,0,1,7-.17,13.82,13.82,0,0,0,3.19.53v4a8.3,8.3,0,0,1-1.37-1.21,5.83,5.83,0,0,0-6.48-2.48,2.8,2.8,0,0,0-1.7,1.74c-.08.5.88,1.51,1.54,1.71A54.22,54.22,0,0,0,138,76c2.43.45,3.77,2,3.67,4a4.53,4.53,0,0,1-4.06,3.93C134.85,84.28,133.45,84,130.53,82.49Z" transform="translate(-0.85 -1.17)"></path><path class="cls-2" d="M111.23,77c.06-4.21,3.15-7.11,7.51-7,4.62.07,7.52,3,7.46,7.52-.06,4.19-3.11,6.86-7.72,6.73S111.16,81.42,111.23,77Zm2.84.14-.48.24a21.53,21.53,0,0,0,2.25,4.47c1.19,1.47,3.5,1.51,5.16.54,2-1.2,2.94-4.14,2.3-7.12a4.7,4.7,0,0,0-3.92-3.92h-.17C116,71.09,114.09,73.31,114.07,77.12Z" transform="translate(-0.85 -1.17)"></path><path class="cls-2" d="M35.18,82.78c-.74.51-1.1,1-1.47,1q-3,.1-6,0c-.37,0-.75-.4-1.12-.61.34-.25.68-.71,1-.71,1.56,0,1.78-1,1.78-2.15,0-4.36-.09-8.74,0-13.1.06-2.07-1.45-2-2.94-2.36.34-.39.51-.77.75-.84,3.69-1,4.71-.13,4.7,3.6s0,7.76,0,11.64C31.93,82.06,31.93,82.06,35.18,82.78Z" transform="translate(-0.85 -1.17)"></path><path class="cls-2" d="M17.3,64.66c.56-.34.88-.66,1.24-.71,3.92-.62,4.34-.27,4.35,3.65V80.35c0,1.21.19,2.19,1.76,2.13.29,0,.6.4.89.61-.32.25-.64.69-1,.7-2,0-4,0-6,0-.33,0-.65-.43-1-.67.28-.22.59-.64.86-.62,1.76.08,2-1,2-2.36V68.88C20.41,65.73,20.4,65.73,17.3,64.66Z" transform="translate(-0.85 -1.17)"></path><path class="cls-2" d="M98.15,71.07c3.26-1.27,5.16-.87,5.94.8a18.79,18.79,0,0,1,2.15-1.64,2.69,2.69,0,0,1,3.75.63c.06.1.12.19.17.29a2.59,2.59,0,0,1-.07,2.11c-.19.36-1.46.64-1.65.41a4.75,4.75,0,0,1-.66-2,3.41,3.41,0,0,1,.11-.85,6.62,6.62,0,0,0-1.65.39,5,5,0,0,0-2.45,4.2c-.11,1.57,0,3.16-.09,4.73s.48,2.39,2.17,2.22a6.93,6.93,0,0,1,1.49.25c-1,1.79-2.52,1.1-3.67,1.13-5,.13-5,.07-5.38-1.06,2.74-.89,2.74-.89,2.74-4,0-1.64-.06-3.27,0-4.9.07-1.37-.22-2.27-1.83-2.23C98.88,71.61,98.51,71.25,98.15,71.07Z" transform="translate(-0.85 -1.17)"></path><path class="cls-2" d="M147.82,82.69a6.33,6.33,0,0,1-2,1.26c-1.12.24-1.82-.41-1.85-1.63a1.53,1.53,0,0,1,1.3-1.74,1.77,1.77,0,0,1,.32,0C146.84,80.5,147.46,81.09,147.82,82.69Z" transform="translate(-0.85 -1.17)"></path></svg> 